<?xml version="1.0" standalone="no"?>
<!DOCTYPE svg PUBLIC "-//W3C//DTD SVG 20010904//EN"
 "http://www.w3.org/TR/2001/REC-SVG-20010904/DTD/svg10.dtd">
<svg version="1.0" xmlns="http://www.w3.org/2000/svg"
 width="767.000000pt" height="767.000000pt" viewBox="0 0 767.000000 767.000000"
 preserveAspectRatio="xMidYMid meet">
<metadata>
Created by potrace 1.11, written by Peter Selinger 2001-2013
</metadata>
<g transform="translate(0.000000,767.000000) scale(0.100000,-0.100000)"
fill="#000000" stroke="none">
<path d="M3579 7666 c-2 -2 -44 -7 -94 -10 -49 -4 -97 -9 -105 -11 -8 -2 -42
-6 -75 -10 -33 -3 -67 -8 -75 -10 -8 -2 -32 -6 -53 -9 -214 -32 -576 -137
-814 -237 -262 -110 -558 -276 -790 -445 -175 -128 -270 -210 -453 -394 -425
-424 -722 -900 -918 -1472 -62 -178 -132 -455 -148 -577 -3 -26 -7 -53 -9 -61
-2 -8 -7 -37 -10 -65 -3 -27 -8 -59 -10 -70 -26 -132 -27 -837 -1 -917 3 -7 7
-35 10 -63 7 -56 8 -66 37 -220 92 -499 316 -1026 623 -1462 97 -139 90 -129
215 -277 517 -613 1229 -1054 2011 -1247 69 -17 134 -32 145 -34 11 -2 58 -10
105 -19 47 -8 108 -18 135 -21 28 -4 61 -8 75 -11 161 -27 766 -25 917 2 16 3
44 7 63 9 65 5 183 27 383 70 49 11 251 71 340 102 425 146 838 377 1194 668
166 137 406 380 563 574 61 75 197 269 256 363 146 236 275 509 368 775 37
108 102 335 111 392 3 19 8 37 10 40 9 16 59 338 72 466 16 159 8 702 -12 803
-1 9 -6 46 -10 82 -4 36 -8 67 -10 70 -2 3 -6 30 -10 60 -4 30 -9 58 -11 61
-2 3 -6 20 -9 38 -3 18 -15 72 -26 119 -11 48 -22 94 -24 102 -2 8 -19 67 -38
130 -185 604 -501 1131 -947 1581 -185 187 -308 292 -535 455 -358 258 -924
507 -1353 594 -84 18 -146 29 -182 35 -19 3 -46 7 -60 10 -40 7 -81 13 -145
20 -33 4 -73 9 -90 12 -36 6 -611 14 -616 9z"/>
</g>
</svg>
